<svg id="Capa_1" data-name="Capa 1" xmlns="http://www.w3.org/2000/svg" viewBox="0 0 174 228"><defs><style>.cls-1{fill:#fff;}</style></defs><title>Mesa de trabajo 9</title><path class="cls-1" d="M59.3,153.39A49.54,49.54,0,0,1,43,144a68.22,68.22,0,0,1-12.44-14.2A83.32,83.32,0,0,1,22,113a80.66,80.66,0,0,1-4.68-18.38A70,70,0,0,1,27.45,48.92a74.82,74.82,0,0,1,5.62-7.74A71.5,71.5,0,0,1,47.2,28.35,70.09,70.09,0,0,1,83.07,16.14a72,72,0,0,1,19.09,1.45,75.93,75.93,0,0,1,9.23,2.65,72.4,72.4,0,0,1,8.78,3.9A70.88,70.88,0,0,1,158,86.85a76.77,76.77,0,0,1-2.7,19,95,95,0,0,1-6.73,17.89,76,76,0,0,1-10.57,16,47,47,0,0,1-15.19,11.87,34.63,34.63,0,0,1-9.33,2.9l-2.32.35-2.31.41c-.78.14-1.55.28-2.37.39l-2.36.29a180.6,180.6,0,0,0-18.44,3.14,78.24,78.24,0,0,0-8.89,2.59,27.23,27.23,0,0,0-7.91,4.16,8.72,8.72,0,0,0-1.43,1.49,4.94,4.94,0,0,0-.88,1.68,4.7,4.7,0,0,0,.52,3.65c1.23,2.46,3.82,4,6.63,5a33,33,0,0,0,9,1.29,63.64,63.64,0,0,0,9.24-.53,76.18,76.18,0,0,0,9.14-1.69,39.2,39.2,0,0,0,4.39-1.34c.36-.13.68-.28,1-.43l.2-.1,0,0c.3.09-.81-.28.13,1.47.55.24.36.09.41.14h-.06l-.23,0c-.7.14-1.46.36-2.2.57a132.83,132.83,0,0,0-17.44,6.75,92.65,92.65,0,0,0-8.25,4.36,45.48,45.48,0,0,0-7.48,5.45,19.6,19.6,0,0,0-3,3.41,8.56,8.56,0,0,0-1.52,4,6.25,6.25,0,0,0,1.12,4,8.78,8.78,0,0,0,3.47,2.64A21.59,21.59,0,0,0,76,209.18a35.33,35.33,0,0,0,4.58.78,53.92,53.92,0,0,0,9.34.17,54.88,54.88,0,0,0,18.15-4.27c5.71-2.48,11-6.27,14.39-11.64-3.21,5.45-8.5,9.41-14.2,12.05a57.13,57.13,0,0,1-27.78,4.65,37.46,37.46,0,0,1-4.71-.72,22.14,22.14,0,0,1-4.59-1.48,10,10,0,0,1-4-3,7.5,7.5,0,0,1-1.43-4.83,9.89,9.89,0,0,1,1.66-4.72,20.44,20.44,0,0,1,3.13-3.73,46.06,46.06,0,0,1,7.66-5.73,93.85,93.85,0,0,1,8.36-4.54,136.17,136.17,0,0,1,17.62-7c.77-.23,1.52-.46,2.36-.64l.35-.06.23,0c.15,0,.06-.11.7.16,1,1.83-.23,1.55,0,1.7l-.22.14-.32.17c-.39.19-.78.36-1.16.51a40.13,40.13,0,0,1-4.6,1.46,78.77,78.77,0,0,1-9.37,1.85,67.5,67.5,0,0,1-9.55.65,35.3,35.3,0,0,1-9.63-1.3,17.19,17.19,0,0,1-4.57-2.16A10.9,10.9,0,0,1,65,173.76a8.68,8.68,0,0,1-.91-2.58,6.74,6.74,0,0,1,.16-2.86,7.21,7.21,0,0,1,1.25-2.49,10.63,10.63,0,0,1,1.8-1.92,29.09,29.09,0,0,1,8.65-4.65,81.74,81.74,0,0,1,9.19-2.71,181,181,0,0,1,18.7-3.26c1.6-.19,3-.37,4.59-.68l2.34-.42,2.33-.36a31.82,31.82,0,0,0,8.59-2.71,44.31,44.31,0,0,0,14.25-11.24A73.08,73.08,0,0,0,146,122.45a91.73,91.73,0,0,0,6.46-17.36A73.88,73.88,0,0,0,155,86.85a68.18,68.18,0,0,0-44.53-64.08,70.27,70.27,0,0,0-8.87-2.58A68.75,68.75,0,0,0,34.66,42.53,75.57,75.57,0,0,0,29.13,50,68.44,68.44,0,0,0,18.72,94.42,79.09,79.09,0,0,0,23,112.58a82.21,82.21,0,0,0,8.25,16.78,68,68,0,0,0,12.08,14.29A49.4,49.4,0,0,0,59.3,153.39Z"/><path class="cls-1" d="M47.14,126a23.08,23.08,0,0,1,5.09-8.88,16,16,0,0,1,10.37-5.41c4-.36,6.91,1.51,8.43,5.25.34.86.6,1.75.86,2.56,1-2.6,1.92-5.25,3.07-7.78a17.33,17.33,0,0,1,5-6.42c2.65-2.09,5.05-1.68,6.69,1.28a53.32,53.32,0,0,1,2.24,5.19c.54-2.28,1-4.57,1.64-6.77.88-2.81,1.9-5.59,3-8.3a9.21,9.21,0,0,1,5-5.18h1.89c3.13,1,4.66,3.45,5.38,6.48.59,2.48,1.19,5,1.6,7.49,1,6,1.81,11.93,2.72,17.89.2,1.32.93,1.86,2.17,1.38A6.11,6.11,0,0,0,115,123a84,84,0,0,0,10-18.08,2.8,2.8,0,0,1,1.71-1.54c.63-.07-.44,7.55-1.75,10.47-2,4.51-4.28,8.9-7.88,12.41a15.36,15.36,0,0,1-2,1.63c-3.29,2.24-6.5,1.29-7.79-2.52a41.32,41.32,0,0,1-1.43-6.82c-.94-5.88-1.77-11.78-2.72-17.66A10.05,10.05,0,0,0,102,97.72c-1.19-2.15-3.42-2.29-4.89-.29a10,10,0,0,0-1.44,2.86c-2,6.27-4.14,12.52-4.73,19.13-.19,2.23-.29,4.47-.42,6.71,0,.58,0,1.16,0,1.75,0,1.41-.73,2.16-1.88,2.11s-1.6-.75-1.6-2.18c0-3.13.19-6.28-.07-9.39a27.17,27.17,0,0,0-1.59-6.48c-.48-1.35-1.25-2.87-3-2.94s-2.36,1.46-3.08,2.66c-2.42,4.07-3.46,8.61-4.4,13.18-1.32,6.4-2.15,12.92-4.62,19a17.32,17.32,0,0,1-1.85,2.82H67.6a2.21,2.21,0,0,1-1.25-2.75c.78-4.51,1.58-9,2.16-13.54a22.25,22.25,0,0,0-1.16-11.78c-1.53-3.57-4.23-4.58-7.62-2.68a20.1,20.1,0,0,0-9,10.52c-.9,2.3-1.87,2.59-3.6.84Z"/></svg>