<svg id="Capa_1" data-name="Capa 1" xmlns="http://www.w3.org/2000/svg" viewBox="0 0 174 228"><defs><style>.cls-1{fill:none;stroke:#fff;stroke-linecap:round;stroke-miterlimit:10;stroke-width:5px;}.cls-2{fill:#fff;}</style></defs><title>Mesa de trabajo 9</title><path class="cls-1" d="M59.3,153.39C34,144.64,17,111.91,17.51,85.52a69.5,69.5,0,0,1,139,1.29c0,24.93-17.16,63.47-44.71,66.58-1.1.13-4.31.79-5.84,1-31.88,3.78-43.28,10.5-40.34,18,5,12.79,35.48,6.31,41.32,3.4s-48.3,13.62-39.55,29.17c5.14,9.13,43.43,8.74,55.1-10.7"/><path class="cls-2" d="M52,126a23,23,0,0,1,5.09-8.88,16,16,0,0,1,10.36-5.41,7.77,7.77,0,0,1,8.43,5.25c.35.86.6,1.75.87,2.56,1-2.6,1.91-5.25,3.07-7.78a17.12,17.12,0,0,1,5-6.42c2.64-2.09,5-1.68,6.69,1.28a55.88,55.88,0,0,1,2.24,5.19c.53-2.28.94-4.57,1.63-6.77.89-2.81,1.9-5.59,3.06-8.3a9.18,9.18,0,0,1,5-5.18h1.88c3.14,1,4.67,3.45,5.39,6.48.59,2.48,1.19,5,1.6,7.49,1,6,1.8,11.93,2.71,17.89.2,1.32.93,1.86,2.18,1.38a6.22,6.22,0,0,0,2.68-1.79,84.89,84.89,0,0,0,10-18.08,2.75,2.75,0,0,1,1.71-1.54c.63-.07-.44,7.55-1.76,10.47-2,4.51-4.27,8.9-7.88,12.41a15.27,15.27,0,0,1-2,1.63c-3.3,2.24-6.51,1.29-7.79-2.52a42.39,42.39,0,0,1-1.44-6.82c-.94-5.88-1.76-11.78-2.72-17.66a9.81,9.81,0,0,0-1.16-3.12c-1.19-2.15-3.42-2.29-4.89-.29a10.53,10.53,0,0,0-1.44,2.86c-2,6.27-4.13,12.52-4.72,19.13-.2,2.23-.3,4.47-.43,6.71,0,.58,0,1.16,0,1.75,0,1.41-.72,2.16-1.87,2.11s-1.61-.75-1.61-2.18c0-3.13.2-6.28-.07-9.39a27.17,27.17,0,0,0-1.59-6.48c-.47-1.35-1.24-2.87-3-2.94s-2.36,1.46-3.07,2.66c-2.43,4.07-3.47,8.61-4.41,13.18-1.32,6.4-2.15,12.92-4.62,19a16.68,16.68,0,0,1-1.85,2.82h-.8a2.21,2.21,0,0,1-1.25-2.75c.77-4.51,1.57-9,2.15-13.54.51-4,.47-8-1.16-11.78-1.53-3.57-4.23-4.58-7.61-2.68a20.06,20.06,0,0,0-9,10.52c-.9,2.3-1.88,2.59-3.6.84Z"/><path class="cls-2" d="M51.91,125.94a23.27,23.27,0,0,1,4.05-8A19,19,0,0,1,63,112.31a15.06,15.06,0,0,1,4.44-1.15,9,9,0,0,1,4.64.7A8.16,8.16,0,0,1,75.61,115a19.87,19.87,0,0,1,1.77,4.24l-1.23,0c.88-2.35,1.68-4.76,2.68-7.12a18.26,18.26,0,0,1,4.39-6.48,9.21,9.21,0,0,1,3.44-2.26,4.26,4.26,0,0,1,2.3-.08,4.37,4.37,0,0,1,2,1.14,7.09,7.09,0,0,1,1.29,1.69c.33.59.61,1.18.87,1.77.52,1.2,1,2.38,1.45,3.51l-1.61.14c.43-1.86.78-3.77,1.29-5.68s1.16-3.74,1.83-5.58c.34-.92.7-1.83,1.07-2.73l.57-1.36a12.94,12.94,0,0,1,.72-1.38,9.72,9.72,0,0,1,4.69-4.12l.16-.06h2.19l.13,0A8.42,8.42,0,0,1,109,92.84a9.5,9.5,0,0,1,2,3.45,31.13,31.13,0,0,1,.87,3.69l.73,3.63.36,1.82.25,1.83.52,3.65,1,7.3.5,3.65.13.91c0,.31.08.62.14.85.14.53.37.81.78.82a3.94,3.94,0,0,0,1.52-.49,5.35,5.35,0,0,0,1.4-1,33.5,33.5,0,0,0,2.14-2.9,84.27,84.27,0,0,0,7-12.85l.75-1.68.37-.85a3,3,0,0,1,.57-.84,2.92,2.92,0,0,1,.79-.64,1.45,1.45,0,0,1,.53-.19.27.27,0,0,1,.15,0,.36.36,0,0,1,.21.11.43.43,0,0,1,.12.22,1.15,1.15,0,0,1,.06.29,10.84,10.84,0,0,1-.05,1.9,38,38,0,0,1-1.45,7.29,34.9,34.9,0,0,1-1.48,3.42c-.53,1.11-1.09,2.21-1.69,3.29a32.62,32.62,0,0,1-4.3,6.08,17.34,17.34,0,0,1-2.79,2.54,6.87,6.87,0,0,1-3.67,1.33,4.67,4.67,0,0,1-2-.41,5.1,5.1,0,0,1-1.61-1.25,8.76,8.76,0,0,1-1.68-3.51,70,70,0,0,1-1.43-7.29l-1.2-7.27-1.18-7.27c-.1-.59-.2-1.25-.3-1.78a7.81,7.81,0,0,0-.53-1.59c-.48-1.09-1-2-1.84-2.21-1.62-.53-3,2-3.61,4.16-.74,2.35-1.49,4.68-2.16,7a70.41,70.41,0,0,0-1.68,7.07c-.22,1.19-.39,2.38-.51,3.58s-.16,2.43-.25,3.64l-.21,3.66v1.83a3.49,3.49,0,0,1-.89,2.38,2.51,2.51,0,0,1-1.34.69,3.24,3.24,0,0,1-1.35,0,2.4,2.4,0,0,1-1.33-.86,3,3,0,0,1-.54-1.29,4.83,4.83,0,0,1-.08-1.1v-.93l0-1.85a55,55,0,0,0-.2-7.19,22.07,22.07,0,0,0-.79-3.43,18,18,0,0,0-1.19-3.21,2.21,2.21,0,0,0-.86-.88,1.54,1.54,0,0,0-1-.11c-.59.1-1.15,1.08-1.78,2.2a29.13,29.13,0,0,0-2.76,6.54c-1.34,4.62-2.07,9.49-3.08,14.32-.51,2.42-1.07,4.84-1.82,7.23-.38,1.19-.78,2.38-1.26,3.54a7,7,0,0,1-.43.94,9.05,9.05,0,0,1-.55.86c-.38.52-.77,1-1.08,1.46l-.27.39H72.27l-.16-.08a3.61,3.61,0,0,1-1-.67,2.7,2.7,0,0,1-.67-1.11,4.45,4.45,0,0,1,0-2.18L71,140l1.18-7.08a37.75,37.75,0,0,0,.78-7,18.49,18.49,0,0,0-1.23-6.8,6.57,6.57,0,0,0-1.82-2.73,3.58,3.58,0,0,0-3-.76,8.6,8.6,0,0,0-3.11,1.34A19.2,19.2,0,0,0,61,119a19.89,19.89,0,0,0-4.3,5.58c-.28.52-.54,1-.77,1.6a8.72,8.72,0,0,1-.83,1.64,2.12,2.12,0,0,1-.73.66,1.29,1.29,0,0,1-1,0,4.47,4.47,0,0,1-1.48-1.11l0,0v0Zm.19,0,0,1.33,0-.09a4.17,4.17,0,0,0,1.41,1,1.09,1.09,0,0,0,1.32-.6,7.72,7.72,0,0,0,.73-1.59c.22-.56.46-1.12.73-1.66a20.09,20.09,0,0,1,7.1-8.2,9.53,9.53,0,0,1,3.42-1.55,4.58,4.58,0,0,1,3.8.88,7.73,7.73,0,0,1,2.23,3.12c2,4.61,1.69,9.83.88,14.5l-1.08,7.13-.54,3.56a3,3,0,0,0,0,1.39,1.25,1.25,0,0,0,.77.72l-.36-.08h.8l-.72.38a13,13,0,0,0,1.85-2.95c.44-1.11.81-2.26,1.16-3.42.68-2.31,1.2-4.68,1.66-7.08.92-4.8,1.68-9.67,3-14.5a30.89,30.89,0,0,1,2.93-7c.3-.5.58-1.06,1-1.66a3.8,3.8,0,0,1,2-1.49,3.61,3.61,0,0,1,2.53.25A4.11,4.11,0,0,1,90.46,110a10.11,10.11,0,0,1,.83,1.88c.2.59.4,1.18.58,1.79a25.44,25.44,0,0,1,.87,3.74,51.66,51.66,0,0,1,.22,7.53l0,1.83,0,.92a3.8,3.8,0,0,0,0,.72.94.94,0,0,0,.14.41c0,.05.06.07.19.11a1.11,1.11,0,0,0,.48,0,.46.46,0,0,0,.27-.13,1.5,1.5,0,0,0,.3-1l0-1.86.25-3.69c.1-1.24.13-2.46.28-3.71s.32-2.49.56-3.71a73.76,73.76,0,0,1,1.79-7.25c.7-2.37,1.47-4.71,2.24-7A11.78,11.78,0,0,1,101.19,97a4.68,4.68,0,0,1,1.69-1.47,3.23,3.23,0,0,1,2.41-.2,3.72,3.72,0,0,1,1.86,1.39,9,9,0,0,1,1,1.78,10,10,0,0,1,.61,1.92c.11.66.18,1.23.28,1.85l1,7.29,1,7.3a72.57,72.57,0,0,0,1.24,7.2,7.73,7.73,0,0,0,1.4,3.12,4,4,0,0,0,1.25,1,3.83,3.83,0,0,0,1.57.35,5.92,5.92,0,0,0,3.17-1.1,16.67,16.67,0,0,0,2.69-2.36,29.39,29.39,0,0,0,4.27-5.87c.61-1.06,1.17-2.15,1.7-3.25a34.73,34.73,0,0,0,1.48-3.32,38.33,38.33,0,0,0,1.46-7.14,9.71,9.71,0,0,0,.07-1.77.58.58,0,0,0,0-.17s0,0,0,0,0,0,.11,0,.06,0,.05,0a.78.78,0,0,0-.33.12,2.22,2.22,0,0,0-.63.52,2.48,2.48,0,0,0-.46.68l-.36.84-.73,1.7a85.91,85.91,0,0,1-7,13c-.7,1-1.33,2-2.18,3.06a6.34,6.34,0,0,1-1.6,1.16c-.29.15-.58.28-.88.4a2.76,2.76,0,0,1-1.07.24,1.63,1.63,0,0,1-1.16-.49,2.38,2.38,0,0,1-.55-1,8,8,0,0,1-.18-1l-.15-.9-.6-3.64-1.19-7.27-.6-3.63-.3-1.82-.39-1.79-.81-3.57a30.64,30.64,0,0,0-.89-3.46A6.92,6.92,0,0,0,105,92.3l.27,0h-1.88l.32-.06a7.93,7.93,0,0,0-3.83,3.43,17.64,17.64,0,0,0-1.16,2.51c-.35.89-.7,1.78-1,2.68-.65,1.78-1.3,3.62-1.82,5.42S95,110,94.58,111.94L94,114.46l-1-2.38c-.5-1.19-.92-2.39-1.4-3.51a9.14,9.14,0,0,0-1.77-3,2.55,2.55,0,0,0-2.68-.7,7.82,7.82,0,0,0-2.84,1.87,17,17,0,0,0-4.09,5.93c-1,2.27-1.87,4.64-2.82,7l-.65,1.62-.58-1.65a19.52,19.52,0,0,0-1.56-4,7,7,0,0,0-3-2.8c-2.5-1.22-5.62-.73-8.28.27a18.35,18.35,0,0,0-7,5.17A24.47,24.47,0,0,0,52.1,126Z"/></svg>