<svg id="Capa_1" data-name="Capa 1" xmlns="http://www.w3.org/2000/svg" viewBox="0 0 493 296"><defs><style>.cls-1,.cls-3{fill:#fff;}.cls-1,.cls-2{stroke:#fff;stroke-miterlimit:10;}.cls-2{fill:none;stroke-linecap:round;stroke-width:5px;}</style></defs><title>Mesa de trabajo 8</title><path class="cls-1" d="M31.33,283.87v2.92H7.16V243.68a14.53,14.53,0,0,1,2.91-3.29,13.88,13.88,0,0,1,9.16-3.33H30.67V240H19.26a10.89,10.89,0,0,0-9.19,4.61v13.74H25.29v2.91H10.07v22.64Z"/><path class="cls-1" d="M40.83,283.49a14.75,14.75,0,0,1-2.91-3.29V237.06h2.91V279.3A10.84,10.84,0,0,0,50,283.87v2.92A13.83,13.83,0,0,1,40.83,283.49Z"/><path class="cls-1" d="M58.41,251.24a.61.61,0,0,1,.7.69v2.22H56.19v-2.91Zm-2.22,6.87h2.92v28.68H56.19Z"/><path class="cls-1" d="M90.53,258.11v5.48l-21.23,19v1.24H90.53v2.92H66.39v-5.48l21.22-19V261H66.39v-2.91Z"/><path class="cls-1" d="M116.33,261a14.63,14.63,0,0,1,2.88,3.26v22.51h-12a13.79,13.79,0,0,1-9.09-3.3,13.54,13.54,0,0,1-2.87-3.22v-16A14.34,14.34,0,0,1,98.15,261a14.3,14.3,0,0,1,18.18,0Zm0,4.16a11.37,11.37,0,0,0-18.18,0v14.15a10.82,10.82,0,0,0,9.09,4.58h9.09Z"/><path class="cls-1" d="M146.85,261.37a14.75,14.75,0,0,1,2.91,3.29v15.5a14.8,14.8,0,0,1-2.91,3.3,14,14,0,0,1-9.09,3.33H125.55V237.06h2.92v21h9.22A14.11,14.11,0,0,1,146.85,261.37Zm0,4.19a11,11,0,0,0-9.2-4.57h-9.18v22.88h9.18a11,11,0,0,0,9.2-4.61Z"/><path class="cls-1" d="M168.62,271.08,175.7,264a10.77,10.77,0,0,0-8-3.4,10.65,10.65,0,0,0-9,4.51v14.64a11.2,11.2,0,0,0,18,0l2.84.9a13.86,13.86,0,0,1-2.84,3.22,13.61,13.61,0,0,1-9,3.26h0a14.28,14.28,0,0,1-11.82-6.48v-16.4a14.25,14.25,0,0,1,11.86-6.49,13.57,13.57,0,0,1,9,3.26,13.38,13.38,0,0,1,2.84,3.16l0,0-8.91,8.91Z"/><path class="cls-1" d="M206.25,258.11V261H195.57v25.8h-2.91V261H182v-2.88Z"/><path class="cls-1" d="M233.09,261.06a14.37,14.37,0,0,1,2.92,3.32v22.41h-2.92v-21.5a11.45,11.45,0,0,0-18.38,0v21.5H211.8v-49.7h2.91v24a14.45,14.45,0,0,1,18.38,0Z"/><path class="cls-1" d="M304.16,240a14.63,14.63,0,0,1,2.88,3.26v43.53h-2.88V244.2a10.89,10.89,0,0,0-9.16-4.58,10.77,10.77,0,0,0-9.08,4.55v42.62H283V244.17a11.39,11.39,0,0,0-18.24,0v42.59h-2.91V243.26a15.29,15.29,0,0,1,2.91-3.26A14.29,14.29,0,0,1,283,240a13.61,13.61,0,0,1,1.46,1.39,11.64,11.64,0,0,1,1.42-1.39,14.34,14.34,0,0,1,18.28,0Z"/><path class="cls-1" d="M325.69,271.08l7.08-7.08a11.18,11.18,0,0,0-17,1.11v14.64a11.21,11.21,0,0,0,18,0l2.84.9a14.06,14.06,0,0,1-11.82,6.48h0a13.5,13.5,0,0,1-9-3.26,13.35,13.35,0,0,1-2.87-3.22v-16.4a14.14,14.14,0,0,1,23.68-.07l0,0-8.92,8.91Z"/><path class="cls-1" d="M363.56,261a14.14,14.14,0,0,1,2.88,3.26v22.51h-2.88V265.18a11.36,11.36,0,0,0-18.17,0v21.61h-2.88V264.28a14.63,14.63,0,0,1,2.88-3.26,14.29,14.29,0,0,1,18.17,0Z"/><path class="cls-1" d="M384.86,258h9.22v-21H397v49.73h-12.2a13.93,13.93,0,0,1-9.09-3.33,14.8,14.8,0,0,1-2.91-3.3v-15.5a14.75,14.75,0,0,1,2.91-3.29A14.09,14.09,0,0,1,384.86,258Zm-9.16,21.22a10.93,10.93,0,0,0,9.19,4.61h9.19V261h-9.19a11,11,0,0,0-9.19,4.57Z"/><path class="cls-1" d="M423.91,261a13.59,13.59,0,0,1,2.87,3.23v16.4a13.35,13.35,0,0,1-2.87,3.22,13.5,13.5,0,0,1-9,3.26h0a14.28,14.28,0,0,1-11.86-6.48v-16.4a13.85,13.85,0,0,1,2.88-3.23,14,14,0,0,1,18,0Zm0,4.09a11.21,11.21,0,0,0-18,0v14.64a11.21,11.21,0,0,0,18,0Z"/><path class="cls-1" d="M457.16,258.11v5.48l-21.22,19v1.24h21.22v2.92H433v-5.48l21.22-19V261H433v-2.91Z"/><path class="cls-1" d="M483,261a14.14,14.14,0,0,1,2.88,3.26v22.51h-12a14.4,14.4,0,0,1-12-6.52v-16a14.63,14.63,0,0,1,2.88-3.26A14.29,14.29,0,0,1,483,261Zm0,4.16a11.36,11.36,0,0,0-18.17,0v14.15a10.82,10.82,0,0,0,9.09,4.58H483Z"/><path class="cls-2" d="M218.8,145c-25.28-8.75-42.27-41.48-41.79-67.86a69.5,69.5,0,0,1,139,1.28c0,24.93-17.16,63.47-44.71,66.58-1.1.13-4.31.79-5.84,1-31.88,3.78-43.28,10.5-40.34,18,5,12.79,35.48,6.32,41.32,3.4s-48.3,13.62-39.55,29.17c5.14,9.13,43.43,8.74,55.1-10.7"/><path class="cls-3" d="M211.51,117.52a23,23,0,0,1,5.09-8.88A16,16,0,0,1,227,103.23a7.77,7.77,0,0,1,8.43,5.25c.35.86.6,1.76.87,2.56,1-2.6,1.91-5.25,3.07-7.78a17.2,17.2,0,0,1,5-6.42c2.64-2.09,5-1.68,6.69,1.28a55.88,55.88,0,0,1,2.24,5.19c.53-2.28.94-4.57,1.63-6.77.89-2.81,1.9-5.59,3.06-8.3a9.18,9.18,0,0,1,5-5.18h1.88c3.14,1,4.67,3.45,5.39,6.48.59,2.48,1.19,5,1.6,7.49,1,6,1.8,11.93,2.71,17.89.2,1.32.93,1.86,2.18,1.38a6.22,6.22,0,0,0,2.68-1.79,84.89,84.89,0,0,0,10-18.08A2.75,2.75,0,0,1,291,94.89c.63-.07-.44,7.55-1.76,10.47-2,4.51-4.27,8.9-7.88,12.41a15.27,15.27,0,0,1-2,1.63c-3.3,2.24-6.51,1.29-7.79-2.52a42.39,42.39,0,0,1-1.44-6.82c-.94-5.88-1.76-11.78-2.72-17.66a9.81,9.81,0,0,0-1.16-3.12c-1.19-2.15-3.42-2.28-4.89-.29A10.45,10.45,0,0,0,260,91.86c-2,6.26-4.13,12.51-4.72,19.12-.2,2.23-.3,4.47-.43,6.71,0,.58,0,1.16,0,1.75-.05,1.41-.72,2.16-1.87,2.11s-1.61-.75-1.61-2.18c0-3.13.2-6.28-.07-9.39a27.17,27.17,0,0,0-1.59-6.48c-.47-1.35-1.24-2.87-3-2.94s-2.36,1.46-3.07,2.66c-2.43,4.07-3.47,8.61-4.41,13.18-1.32,6.4-2.15,12.92-4.62,19a16.68,16.68,0,0,1-1.85,2.82H232a2.21,2.21,0,0,1-1.25-2.75c.77-4.51,1.57-9,2.15-13.54.51-4,.47-8-1.16-11.78-1.53-3.57-4.23-4.58-7.61-2.68a20.09,20.09,0,0,0-9,10.52c-.9,2.3-1.88,2.59-3.6.84Z"/><path class="cls-3" d="M211.41,117.5a23.27,23.27,0,0,1,4.05-8,19,19,0,0,1,7.06-5.63,15.06,15.06,0,0,1,4.44-1.15,9,9,0,0,1,4.64.7,8.16,8.16,0,0,1,3.51,3.17,19.87,19.87,0,0,1,1.77,4.24l-1.23,0c.88-2.35,1.68-4.75,2.68-7.12a18.26,18.26,0,0,1,4.39-6.48,9.21,9.21,0,0,1,3.44-2.26,4.26,4.26,0,0,1,2.3-.08,4.37,4.37,0,0,1,2,1.14,7.09,7.09,0,0,1,1.29,1.69,19.46,19.46,0,0,1,.87,1.78c.52,1.19,1,2.37,1.45,3.5l-1.61.14c.43-1.86.78-3.77,1.29-5.68s1.16-3.74,1.83-5.58c.34-.92.7-1.83,1.07-2.73l.57-1.36a12.94,12.94,0,0,1,.72-1.38,9.65,9.65,0,0,1,4.69-4.11l.16-.07H265l.13,0a8.53,8.53,0,0,1,3.43,2.15,9.5,9.5,0,0,1,2,3.45,31.13,31.13,0,0,1,.87,3.69l.73,3.63.36,1.82.25,1.83.52,3.65,1,7.3.5,3.65.13.91c.05.31.08.62.14.85.14.53.37.81.78.82a3.94,3.94,0,0,0,1.52-.49,5.35,5.35,0,0,0,1.4-1,33.5,33.5,0,0,0,2.14-2.9,84.27,84.27,0,0,0,7-12.85l.75-1.68.37-.85a3,3,0,0,1,.57-.84,2.92,2.92,0,0,1,.79-.64,1.66,1.66,0,0,1,.53-.19.27.27,0,0,1,.15,0,.36.36,0,0,1,.21.11.43.43,0,0,1,.12.22,1.15,1.15,0,0,1,.06.29,10.84,10.84,0,0,1-.05,1.9,38,38,0,0,1-1.45,7.29,34.9,34.9,0,0,1-1.48,3.42c-.53,1.11-1.09,2.21-1.69,3.29a32.62,32.62,0,0,1-4.3,6.08,16.89,16.89,0,0,1-2.79,2.54,6.87,6.87,0,0,1-3.67,1.33,4.67,4.67,0,0,1-2-.41,5.1,5.1,0,0,1-1.61-1.25,8.92,8.92,0,0,1-1.69-3.51,72.64,72.64,0,0,1-1.42-7.29l-1.2-7.27L267,94.07c-.1-.59-.2-1.24-.3-1.78a7.81,7.81,0,0,0-.53-1.59c-.48-1.09-1-2-1.84-2.21-1.62-.53-3,2-3.61,4.17-.74,2.34-1.49,4.67-2.16,7a70.41,70.41,0,0,0-1.68,7.07c-.22,1.19-.39,2.38-.51,3.58s-.16,2.43-.25,3.64l-.21,3.67v1.82a3.47,3.47,0,0,1-.89,2.38,2.45,2.45,0,0,1-1.34.69,3.08,3.08,0,0,1-1.35,0,2.4,2.4,0,0,1-1.33-.86,3,3,0,0,1-.54-1.29,4.79,4.79,0,0,1-.08-1.1v-.93l0-1.85a55,55,0,0,0-.2-7.19,22.07,22.07,0,0,0-.79-3.43,18,18,0,0,0-1.19-3.21,2.21,2.21,0,0,0-.86-.88,1.6,1.6,0,0,0-1.05-.11c-.59.1-1.15,1.08-1.78,2.2a29.13,29.13,0,0,0-2.76,6.54c-1.34,4.62-2.07,9.49-3.08,14.32-.51,2.42-1.07,4.84-1.82,7.23-.38,1.19-.78,2.38-1.26,3.54a7,7,0,0,1-.43.94,9.05,9.05,0,0,1-.55.86c-.38.52-.77,1-1.08,1.46l-.27.39h-1.46l-.16-.08a3.61,3.61,0,0,1-1-.67,2.7,2.7,0,0,1-.67-1.11,4.45,4.45,0,0,1,0-2.18l.59-3.54,1.18-7.08a37.74,37.74,0,0,0,.78-7,18.51,18.51,0,0,0-1.23-6.81,6.57,6.57,0,0,0-1.82-2.73,3.58,3.58,0,0,0-3-.76,8.77,8.77,0,0,0-3.11,1.34,19.2,19.2,0,0,0-2.83,2.1,19.89,19.89,0,0,0-4.3,5.58c-.28.52-.54,1.06-.77,1.6a8.72,8.72,0,0,1-.83,1.64,2,2,0,0,1-.73.66,1.29,1.29,0,0,1-1,0,4.34,4.34,0,0,1-1.48-1.11l0,0v0Zm.19,0,0,1.33,0-.08a4.28,4.28,0,0,0,1.41,1,1.09,1.09,0,0,0,1.32-.6,7.72,7.72,0,0,0,.73-1.59c.22-.56.46-1.12.73-1.66A20.42,20.42,0,0,1,220,110a21.11,21.11,0,0,1,2.86-2.29,9.53,9.53,0,0,1,3.42-1.55,4.58,4.58,0,0,1,3.8.88,7.73,7.73,0,0,1,2.23,3.12c2,4.61,1.69,9.83.88,14.5l-1.08,7.13-.54,3.56a3,3,0,0,0,0,1.39,1.25,1.25,0,0,0,.77.72l-.36-.08h.8l-.72.38a12.78,12.78,0,0,0,1.85-2.95c.44-1.11.81-2.26,1.16-3.42.68-2.31,1.2-4.68,1.66-7.08.92-4.8,1.68-9.67,3.05-14.5a30.89,30.89,0,0,1,2.93-7c.3-.5.58-1.06,1-1.66a3.8,3.8,0,0,1,2-1.49,3.61,3.61,0,0,1,2.53.25,4.11,4.11,0,0,1,1.73,1.67,10.11,10.11,0,0,1,.83,1.88c.2.59.4,1.18.58,1.79a25.44,25.44,0,0,1,.87,3.74,51.66,51.66,0,0,1,.22,7.53l0,1.83,0,.92a3.8,3.8,0,0,0,0,.72.94.94,0,0,0,.14.41c0,.05.06.07.19.11a1.11,1.11,0,0,0,.48,0,.46.46,0,0,0,.27-.13,1.5,1.5,0,0,0,.3-1l0-1.86.25-3.69c.1-1.24.13-2.46.28-3.71s.32-2.49.56-3.71a73.76,73.76,0,0,1,1.79-7.25c.7-2.37,1.47-4.71,2.24-7a11.62,11.62,0,0,1,1.71-3.55,4.62,4.62,0,0,1,1.69-1.48,3.28,3.28,0,0,1,2.41-.2,3.72,3.72,0,0,1,1.86,1.39,9,9,0,0,1,1,1.78,10,10,0,0,1,.61,1.92c.11.67.18,1.23.28,1.85l1.06,7.29,1,7.3a72.57,72.57,0,0,0,1.24,7.2,7.67,7.67,0,0,0,1.4,3.12,4,4,0,0,0,1.25,1,3.68,3.68,0,0,0,1.57.35,5.92,5.92,0,0,0,3.17-1.1,16.67,16.67,0,0,0,2.69-2.36,29.54,29.54,0,0,0,4.28-5.87c.6-1.06,1.16-2.15,1.69-3.25a34.73,34.73,0,0,0,1.48-3.32,38.33,38.33,0,0,0,1.46-7.14,9.71,9.71,0,0,0,.07-1.77.5.5,0,0,0,0-.16s0,0,0,0,0,0,.11,0,.06,0,.05,0a.78.78,0,0,0-.33.12,2.4,2.4,0,0,0-.63.52,2.48,2.48,0,0,0-.46.68l-.36.84-.73,1.7a85.44,85.44,0,0,1-7,13c-.7,1-1.33,2-2.18,3.06a6.34,6.34,0,0,1-1.6,1.16c-.29.15-.58.28-.88.4a2.76,2.76,0,0,1-1.07.24,1.63,1.63,0,0,1-1.16-.49,2.33,2.33,0,0,1-.55-1,8,8,0,0,1-.18-1l-.15-.9-.6-3.64L272,102.67,271.4,99l-.3-1.82-.4-1.79-.8-3.57A30.64,30.64,0,0,0,269,88.4a6.92,6.92,0,0,0-4.47-4.54l.27,0h-1.88l.32-.06a7.93,7.93,0,0,0-3.83,3.43,17.64,17.64,0,0,0-1.16,2.51c-.35.89-.7,1.78-1,2.68-.65,1.78-1.3,3.62-1.82,5.42s-.87,3.71-1.33,5.61l-.61,2.52-1-2.38c-.5-1.19-.92-2.39-1.4-3.51a9.14,9.14,0,0,0-1.77-3,2.55,2.55,0,0,0-2.68-.7,7.82,7.82,0,0,0-2.84,1.87,17,17,0,0,0-4.09,5.93c-1,2.27-1.87,4.65-2.82,7l-.65,1.62-.58-1.65a19.52,19.52,0,0,0-1.56-4,7,7,0,0,0-3-2.8c-2.5-1.22-5.62-.73-8.28.27a18.35,18.35,0,0,0-6.95,5.17A24.47,24.47,0,0,0,211.6,117.53Z"/></svg>